<?xml version="1.0" encoding="utf-8"?>
<!-- Generator: Adobe Illustrator 26.1.0, SVG Export Plug-In . SVG Version: 6.00 Build 0)  -->
<svg version="1.1" id="Layer_1" xmlns="http://www.w3.org/2000/svg" xmlns:xlink="http://www.w3.org/1999/xlink" x="0px" y="0px"
	 viewBox="0 0 90 90" style="enable-background:new 0 0 90 90;" xml:space="preserve">
<style type="text/css">
	
		.st0{clip-path:url(#SVGID_00000156556716507926213380000005369931069897712768_);fill:url(#SVGID_00000127732861942380174940000004615386096594247308_);}
</style>
<g>
	<defs>
		<rect id="SVGID_1_" width="90" height="90"/>
	</defs>
	<clipPath id="SVGID_00000162338133542877203890000014295430963457493407_">
		<use xlink:href="#SVGID_1_"  style="overflow:visible;"/>
	</clipPath>
	
		<linearGradient id="SVGID_00000106142209202272657850000013840705966865953977_" gradientUnits="userSpaceOnUse" x1="4.5" y1="45" x2="85.5" y2="45">
		<stop  offset="0" style="stop-color:#8BC53F"/>
		<stop  offset="1" style="stop-color:#00ADEE"/>
	</linearGradient>
	
		<path style="clip-path:url(#SVGID_00000162338133542877203890000014295430963457493407_);fill:url(#SVGID_00000106142209202272657850000013840705966865953977_);" d="
		M85.5,36.7c0,2.8-0.8,5.7-2.2,8.2c-1.5,2.5-3.6,4.5-6.2,5.9v-3.3c0-1.4-0.5-2.6-1.5-3.6s-2.2-1.5-3.6-1.5H49
		c-0.9,0-1.7,0.2-2.4,0.7c-0.7-0.8-1.3-1.4-1.8-1.9l0,0c1.4-1,2.1-2.7,1.7-4.4c-0.4-1.7-1.8-2.9-3.5-3.2c0.8-1.9,1.2-3.8,1.5-5.9
		c0.2-1.4-0.2-2.7-1.2-3.7c-0.9-1-2.2-1.6-3.5-1.6H27.3c-1.4,0-2.7,0.6-3.6,1.8c-0.9,1.1-1.3,2.5-1,3.9c0.4,1.9,1,3.6,1.7,5.4
		c-1.8,0.1-3.3,1.3-3.8,2.9c-0.5,1.7,0,3.5,1.5,4.6c-3.4,3.1-6.1,7-7.9,11.2c-6.3-1.7-10.4-7.7-9.5-14.2s6.3-11.3,12.8-11.3h1
		c0.3,0,0.6-0.1,0.8-0.3c0.2-0.2,0.3-0.5,0.3-0.8c0-7.2,5.9-13,13.1-13c1.6,0,3,0.3,4.5,0.8c0.5,0.2,1,0,1.3-0.4
		c2.4-4.4,6.7-7.4,11.5-8.4s10,0.1,14.1,3c4,2.9,6.7,7.4,7.2,12.4c0,0.5,0.4,0.8,0.9,0.9c3.7,0.6,7.1,2.5,9.6,5.5
		C84.1,29.3,85.5,33,85.5,36.7L85.5,36.7z M45,44.3c-0.7,0.9-1.1,2-1.1,3.1v28c-2.9,1-6,1.6-9,1.6h-1.8c-0.4-0.1-0.9,0-1.3,0
		c-7.1-0.2-12.2-2.2-15-5.8c-2.6-3.4-3.3-8.4-2-14.7v-0.1c1.7-7.7,8-13.5,9.2-14.6l0,0c0.2,0,0.3,0,0.5,0h18
		C43.4,42.7,44.2,43.6,45,44.3L45,44.3z M31.7,55.2v-0.4c0-1,0.8-1.8,1.8-1.8h0.4c0.8,0,1.5,0.7,1.5,1.5c0,0.6,0.5,1,1,1s1-0.5,1-1
		c0-1.7-1.2-3-2.7-3.4v-0.9l0,0c0-0.6-0.5-1-1-1c-0.5,0-1,0.5-1,1v0.9c-1.7,0.4-2.9,1.9-2.9,3.6v0.4c0,2.1,1.7,3.7,3.7,3.7
		c1,0.1,1.8,0.9,1.8,1.9c0,1-0.8,1.9-1.8,1.9c-1,0-1.8-0.8-1.8-1.8v-0.3c0-0.6-0.5-1-1-1c-0.6,0-1,0.5-1,1v0.3
		c0,1.7,1.2,3.1,2.7,3.6v0.7c0,0.6,0.5,1,1,1c0.5,0,1-0.5,1-1v-0.7l0,0c1.9-0.5,3.1-2.3,2.8-4.3c-0.3-2-1.9-3.4-3.8-3.4
		c-0.5,0-0.9-0.2-1.3-0.5C31.9,56.2,31.7,55.7,31.7,55.2L31.7,55.2z M41.8,25.5c-0.5-0.6-1.2-0.9-2-0.9H27.3c-0.8,0-1.6,0.4-2.1,1
		c-0.5,0.6-0.7,1.5-0.5,2.2c0.4,2.1,1.1,3.9,2,5.8h14.1c0.9-2,1.5-4,1.7-6.1C42.5,26.7,42.3,26.1,41.8,25.5L41.8,25.5z M42.4,35.6
		H24.7c-1.2,0-2.2,1-2.2,2.2s1,2.2,2.2,2.2h17.7c1.2,0,2.2-1,2.2-2.2S43.5,35.6,42.4,35.6L42.4,35.6z M52.6,60.1h15.9
		c0.3,0,0.5-0.1,0.7-0.3c0.2-0.2,0.3-0.5,0.3-0.7V51c0-0.3-0.1-0.5-0.3-0.7c-0.2-0.2-0.5-0.3-0.7-0.3H52.6c-0.6,0-1,0.5-1,1v8
		c0,0.3,0.1,0.5,0.3,0.7C52.1,60,52.3,60.1,52.6,60.1L52.6,60.1z M75.1,47.5v35.2c0,1.7-1.4,3-3,3H49c-1.7,0-3-1.4-3-3V47.5
		c0-1.7,1.4-3,3-3h23C73.8,44.4,75.1,45.8,75.1,47.5z M49.6,59c0,1.7,1.4,3,3,3h15.9c1.7,0,3-1.4,3-3v-8c0-1.7-1.4-3-3-3H52.6
		c-1.7,0-3,1.4-3,3V59z M54.9,80.8c0-0.3-0.1-0.5-0.3-0.7c-0.2-0.2-0.5-0.3-0.7-0.3h-3.5c-0.6,0-1,0.5-1,1c0,0.6,0.5,1,1,1h3.5
		c0.3,0,0.5-0.1,0.7-0.3C54.8,81.4,54.9,81.1,54.9,80.8L54.9,80.8z M54.9,73.7c0-0.3-0.1-0.5-0.3-0.7c-0.2-0.2-0.5-0.3-0.7-0.3h-3.5
		c-0.6,0-1,0.5-1,1s0.5,1,1,1h3.5c0.3,0,0.6-0.1,0.8-0.3C54.9,74.2,55,74,54.9,73.7L54.9,73.7z M54.9,66.3c0-0.3-0.1-0.5-0.3-0.7
		c-0.2-0.2-0.5-0.3-0.7-0.3h-3.5c-0.6,0-1,0.5-1,1c0,0.6,0.5,1,1,1h3.5c0.3,0,0.6-0.1,0.8-0.3S55,66.5,54.9,66.3L54.9,66.3z
		 M63.5,80.8c0-0.3-0.1-0.5-0.3-0.7c-0.2-0.2-0.5-0.3-0.7-0.3H59c-0.6,0-1,0.5-1,1c0,0.6,0.5,1,1,1h3.5c0.3,0,0.5-0.1,0.7-0.3
		C63.4,81.4,63.5,81.1,63.5,80.8L63.5,80.8z M63.5,73.7c0-0.3-0.1-0.5-0.3-0.7c-0.2-0.2-0.5-0.3-0.7-0.3H59c-0.6,0-1,0.5-1,1
		s0.5,1,1,1h3.5c0.3,0,0.6-0.1,0.8-0.3C63.4,74.2,63.5,74,63.5,73.7L63.5,73.7z M63.5,66.3c0-0.3-0.1-0.5-0.3-0.7s-0.5-0.3-0.7-0.3
		H59c-0.6,0-1,0.5-1,1c0,0.6,0.5,1,1,1h3.5c0.3,0,0.6-0.1,0.8-0.3C63.4,66.8,63.5,66.5,63.5,66.3L63.5,66.3z M70.2,73.1
		c0-0.6-0.5-1-1-1c-0.6,0-1,0.5-1,1v7.8c0,0.6,0.5,1,1,1c0.6,0,1-0.5,1-1V73.1z M72,66.3c0-0.3-0.1-0.5-0.3-0.7s-0.5-0.3-0.7-0.3
		h-3.5c-0.6,0-1,0.5-1,1c0,0.6,0.5,1,1,1H71c0.3,0,0.6-0.1,0.8-0.3C71.9,66.8,72,66.5,72,66.3L72,66.3z"/>
</g>
</svg>
