<?xml version="1.0" encoding="utf-8"?>
<!-- Generator: Adobe Illustrator 26.1.0, SVG Export Plug-In . SVG Version: 6.00 Build 0)  -->
<svg version="1.1" id="Layer_1" xmlns="http://www.w3.org/2000/svg" xmlns:xlink="http://www.w3.org/1999/xlink" x="0px" y="0px"
	 viewBox="0 0 90 90" style="enable-background:new 0 0 90 90;" xml:space="preserve">
<style type="text/css">
	
		.st0{clip-path:url(#SVGID_00000072262889669108598820000015268458823075066539_);fill:url(#SVGID_00000119804578625795724420000007189029154970063778_);}
</style>
<g>
	<defs>
		<rect id="SVGID_1_" width="90" height="90"/>
	</defs>
	<clipPath id="SVGID_00000145774158323632714700000014040809044960594610_">
		<use xlink:href="#SVGID_1_"  style="overflow:visible;"/>
	</clipPath>
	
		<linearGradient id="SVGID_00000085929028372639203950000016579256609996839069_" gradientUnits="userSpaceOnUse" x1="6.5" y1="44.95" x2="83.5" y2="44.95">
		<stop  offset="0" style="stop-color:#8BC53F"/>
		<stop  offset="1" style="stop-color:#00ADEE"/>
	</linearGradient>
	
		<path style="clip-path:url(#SVGID_00000145774158323632714700000014040809044960594610_);fill:url(#SVGID_00000085929028372639203950000016579256609996839069_);" d="
		M10.4,64.5c-2.1,0-3.9-1.8-3.9-3.9V9.8c0-2.1,1.8-3.9,3.9-3.9h60.9c1,0,2,0.4,2.7,1.1c0.7,0.7,1.1,1.7,1.1,2.7V29h-3.4V16.6
		c0-0.3-0.1-0.5-0.3-0.7c-0.2-0.2-0.5-0.3-0.7-0.3c-2.7,0-4.8-2.1-4.8-4.8c0-0.3-0.1-0.5-0.3-0.7C65.5,10,65.2,9.9,65,9.9H16.3
		c-0.6,0-0.9,0.5-0.9,0.9c0,1.3-0.5,2.5-1.4,3.4s-2.1,1.4-3.4,1.4c-0.6,0-0.9,0.5-0.9,0.9V54c0,0.3,0.1,0.5,0.3,0.7
		c0.2,0.2,0.5,0.3,0.7,0.3c2,0,3.9,1.3,4.6,3.3c0,0.1,0.1,0.2,0.1,0.3c-0.8,1.6-1.3,3.3-1.3,5.2v0.7H10.4z M69.8,29.1V18.3
		c0-0.5-0.3-0.8-0.7-0.9c-2.4-0.7-4.3-2.5-4.9-4.9c-0.1-0.5-0.6-0.7-0.9-0.7H17.9c-0.5,0-0.8,0.3-0.9,0.7c-0.7,2.4-2.5,4.2-4.8,4.8
		c-0.4,0.1-0.7,0.5-0.7,0.9v34c0,0.5,0.3,0.8,0.7,0.9c1.9,0.5,3.4,1.8,4.4,3.4c2.3-2.8,6-4.3,9.7-3.8c3.6,0.5,6.9,2.7,8.5,6H44V47.4
		H31.5c-0.6,0-0.9-0.5-0.9-0.9c0-0.6,0.5-0.9,0.9-0.9H44v-5.2H23.1c-0.6,0-0.9-0.5-0.9-0.9c0-0.5,0.5-0.9,0.9-0.9h20.8v-1.6
		c0-1.8,0.7-3.5,1.8-4.9h-22c-2.1,0-3.9-1.8-3.9-3.9v-5.7c0-2.1,1.8-3.9,3.9-3.9h34.9c1,0,2,0.4,2.7,1.1s1.1,1.7,1.1,2.7V29
		L69.8,29.1z M14,78.4l5.2-5.2c-1.7-1-3.1-2.4-4-4.1l-5.4,5.4c-0.1,0.1-0.2,0.3-0.1,0.4s0.2,0.3,0.4,0.3l2.4,0.1
		c0.3,0,0.5,0.1,0.7,0.3c0.2,0.2,0.3,0.5,0.3,0.7V78l0,0c0,0.2,0.1,0.3,0.2,0.4C13.8,78.5,13.9,78.5,14,78.4L14,78.4z M39.3,74.4
		l-5.1-5.1c-1,1.7-2.4,3.1-4.1,4l4.9,4.9c0.1,0.1,0.3,0.2,0.5,0.1c0.2-0.1,0.3-0.2,0.2-0.4v-1.9c0-0.6,0.5-0.9,0.9-0.9L39,75l0,0
		c0.2,0,0.3-0.1,0.4-0.3C39.5,74.6,39.5,74.5,39.3,74.4L39.3,74.4z M44,64.5v-3.7h-8.6c0.3,0.9,0.5,2,0.5,3v0.7H44z M28.9,62.3H28
		c-1.1,0-2-0.7-2.3-1.7l-0.3-0.9l0,0c-0.1-0.2-0.3-0.4-0.5-0.4s-0.4,0.1-0.5,0.4l-0.3,0.9l0,0c-0.4,1-1.3,1.7-2.3,1.7h-0.9
		c-0.2,0-0.5,0.2-0.5,0.4c-0.1,0.2,0,0.5,0.2,0.6l0.8,0.6c0.8,0.7,1.2,1.8,0.9,2.8l-0.3,0.9c-0.1,0.2,0,0.5,0.2,0.6s0.5,0.1,0.7,0
		l0.8-0.6l0,0c0.8-0.7,2-0.7,2.9,0l0.8,0.6c0.2,0.1,0.5,0.1,0.7,0c0.2-0.1,0.3-0.4,0.2-0.6l-0.3-0.9c-0.4-1,0-2.1,0.9-2.8l0.8-0.6
		c0.2-0.1,0.3-0.4,0.2-0.6C29.5,62.4,29.2,62.2,28.9,62.3L28.9,62.3z M33.8,63.7c0,3.6-2.2,7-5.6,8.4s-7.3,0.7-9.9-2
		c-2.6-2.6-3.3-6.4-2-9.9c1.4-3.3,4.6-5.6,8.4-5.6C29.8,54.7,33.8,58.8,33.8,63.7L33.8,63.7z M31.3,62c-0.3-1-1.3-1.7-2.3-1.7h-0.9
		c-0.2,0-0.5-0.1-0.6-0.4L27.2,59c-0.4-1-1.3-1.7-2.3-1.7s-2,0.7-2.3,1.7L22.3,60c-0.1,0.2-0.3,0.4-0.5,0.4h-0.9
		c-1.1,0-2,0.7-2.4,1.7s0,2.1,0.9,2.8l0.8,0.6l0,0c0.2,0.1,0.3,0.4,0.2,0.6l-0.3,0.9c-0.3,1,0.1,2,0.9,2.7c0.8,0.7,2,0.7,2.9,0
		l0.8-0.6l0,0c0.2-0.1,0.5-0.1,0.7,0l0.8,0.6l0,0c0.8,0.7,2,0.7,2.9,0c0.8-0.7,1.2-1.8,0.9-2.7l-0.3-0.9c-0.1-0.2,0-0.5,0.2-0.6
		l0.8-0.6C31.2,64.2,31.6,63,31.3,62L31.3,62z M75.7,38H54c-0.6,0-0.9,0.5-0.9,0.9v11.5c0,0.3,0.1,0.5,0.3,0.7
		c0.2,0.2,0.5,0.3,0.7,0.3h21.6c0.3,0,0.5-0.1,0.7-0.3c0.2-0.2,0.3-0.5,0.3-0.7V39c0-0.3-0.1-0.5-0.3-0.7C76.2,38.1,75.9,38,75.7,38
		L75.7,38z M56.3,59.1L56.3,59.1c0,0.7-0.4,1.2-1,1.5c-0.7,0.3-1.3,0.1-1.8-0.4c-0.5-0.5-0.6-1.1-0.4-1.8c0.3-0.6,0.8-1,1.5-1
		c0.5,0,0.8,0.2,1.1,0.5C56.2,58.3,56.3,58.7,56.3,59.1L56.3,59.1c0,0.7-0.4,1.2-1,1.5c-0.7,0.3-1.3,0.1-1.8-0.4
		c-0.5-0.5-0.6-1.1-0.4-1.8c0.3-0.6,0.8-1,1.5-1c0.5,0,0.8,0.2,1.1,0.5C56.2,58.3,56.3,58.7,56.3,59.1L56.3,59.1
		c0,0.7-0.4,1.2-1,1.5c-0.7,0.3-1.3,0.1-1.8-0.4c-0.5-0.5-0.6-1.1-0.4-1.8c0.3-0.6,0.8-1,1.5-1c0.5,0,0.8,0.2,1.1,0.5
		C56.2,58.3,56.3,58.7,56.3,59.1L56.3,59.1z M66.5,59.1L66.5,59.1c0,0.7-0.4,1.2-1,1.5c-0.6,0.3-1.3,0.1-1.8-0.4
		c-0.5-0.5-0.6-1.1-0.4-1.8c0.3-0.6,0.8-1,1.5-1c0.5,0,0.8,0.2,1.1,0.5C66.3,58.3,66.5,58.7,66.5,59.1L66.5,59.1z M76.6,59.1
		L76.6,59.1c0,0.7-0.4,1.3-1,1.5c-0.7,0.3-1.3,0.1-1.8-0.4c-0.5-0.5-0.6-1.2-0.3-1.8c0.3-0.7,0.8-1,1.6-0.9
		C75.9,57.5,76.6,58.2,76.6,59.1L76.6,59.1c0,0.7-0.4,1.3-1,1.5c-0.7,0.3-1.3,0.1-1.8-0.4c-0.5-0.5-0.6-1.2-0.3-1.8
		c0.3-0.7,0.8-1,1.6-0.9C75.9,57.5,76.6,58.2,76.6,59.1L76.6,59.1z M66.5,59.1L66.5,59.1c0,0.7-0.4,1.2-1,1.5
		c-0.6,0.3-1.3,0.1-1.8-0.4c-0.5-0.5-0.6-1.1-0.4-1.8c0.3-0.6,0.8-1,1.5-1c0.5,0,0.8,0.2,1.1,0.5C66.3,58.3,66.5,58.7,66.5,59.1
		L66.5,59.1z M56.3,59.1L56.3,59.1c0,0.7-0.4,1.2-1,1.5c-0.7,0.3-1.3,0.1-1.8-0.4c-0.5-0.5-0.6-1.1-0.4-1.8c0.3-0.6,0.8-1,1.5-1
		c0.5,0,0.8,0.2,1.1,0.5C56.2,58.3,56.3,58.7,56.3,59.1L56.3,59.1z M56.3,68.3L56.3,68.3c0,0.7-0.4,1.3-1,1.5
		c-0.6,0.3-1.3,0.1-1.8-0.4c-0.5-0.5-0.7-1.1-0.4-1.8c0.3-0.7,0.8-1,1.5-1C55.6,66.8,56.3,67.5,56.3,68.3L56.3,68.3z M56.3,59.1
		L56.3,59.1c0,0.7-0.4,1.2-1,1.5c-0.7,0.3-1.3,0.1-1.8-0.4c-0.5-0.5-0.6-1.1-0.4-1.8c0.3-0.6,0.8-1,1.5-1c0.5,0,0.8,0.2,1.1,0.5
		C56.2,58.3,56.3,58.7,56.3,59.1L56.3,59.1z M66.5,68.3L66.5,68.3c0,0.7-0.4,1.3-1,1.5c-0.7,0.3-1.3,0.1-1.8-0.4
		c-0.5-0.5-0.7-1.2-0.4-1.8c0.3-0.7,0.8-1,1.5-1C65.7,66.8,66.5,67.5,66.5,68.3L66.5,68.3z M66.5,59.1L66.5,59.1
		c0,0.7-0.4,1.2-1,1.5c-0.6,0.3-1.3,0.1-1.8-0.4c-0.5-0.5-0.6-1.1-0.4-1.8c0.3-0.6,0.8-1,1.5-1c0.5,0,0.8,0.2,1.1,0.5
		C66.3,58.3,66.5,58.7,66.5,59.1L66.5,59.1z M76.6,59.1L76.6,59.1c0,0.7-0.4,1.3-1,1.5c-0.7,0.3-1.3,0.1-1.8-0.4
		c-0.5-0.5-0.6-1.2-0.3-1.8c0.3-0.7,0.8-1,1.6-0.9C75.9,57.5,76.6,58.2,76.6,59.1L76.6,59.1c0,0.7-0.4,1.3-1,1.5
		c-0.7,0.3-1.3,0.1-1.8-0.4c-0.5-0.5-0.6-1.2-0.3-1.8c0.3-0.7,0.8-1,1.6-0.9C75.9,57.5,76.6,58.2,76.6,59.1L76.6,59.1z M66.5,59.1
		L66.5,59.1c0,0.7-0.4,1.2-1,1.5c-0.6,0.3-1.3,0.1-1.8-0.4c-0.5-0.5-0.6-1.1-0.4-1.8c0.3-0.6,0.8-1,1.5-1c0.5,0,0.8,0.2,1.1,0.5
		C66.3,58.3,66.5,58.7,66.5,59.1L66.5,59.1z M66.5,68.3L66.5,68.3c0,0.7-0.4,1.3-1,1.5c-0.7,0.3-1.3,0.1-1.8-0.4
		c-0.5-0.5-0.7-1.2-0.4-1.8c0.3-0.7,0.8-1,1.5-1C65.7,66.8,66.5,67.5,66.5,68.3L66.5,68.3z M56.3,59.1c0,0.7-0.4,1.2-1,1.5
		c-0.6,0.3-1.3,0.1-1.8-0.4c-0.5-0.5-0.7-1.1-0.4-1.8s0.8-1,1.5-1c0.5,0,0.8,0.2,1.1,0.5C56.2,58.3,56.3,58.7,56.3,59.1L56.3,59.1z
		 M56.3,68.3c0,0.7-0.4,1.3-0.9,1.5c-0.6,0.3-1.3,0.2-1.8-0.3c-0.5-0.5-0.7-1.1-0.4-1.8c0.3-0.7,0.8-1,1.5-1
		C55.6,66.8,56.3,67.5,56.3,68.3L56.3,68.3z M56.3,77c0,0.7-0.4,1.2-1,1.5c-0.6,0.3-1.3,0.1-1.8-0.4c-0.5-0.5-0.7-1.1-0.4-1.8
		s0.8-1,1.5-1c0.5,0,0.8,0.2,1.1,0.5C56.2,76.1,56.3,76.5,56.3,77L56.3,77z M56.3,68.3c0,0.7-0.4,1.3-0.9,1.5
		c-0.6,0.3-1.3,0.2-1.8-0.3c-0.5-0.5-0.7-1.1-0.4-1.8c0.3-0.7,0.8-1,1.5-1C55.6,66.8,56.3,67.5,56.3,68.3L56.3,68.3z M56.3,59.1
		c0,0.7-0.4,1.2-1,1.5c-0.6,0.3-1.3,0.1-1.8-0.4c-0.5-0.5-0.7-1.1-0.4-1.8s0.8-1,1.5-1c0.5,0,0.8,0.2,1.1,0.5
		C56.2,58.3,56.3,58.7,56.3,59.1L56.3,59.1z M66.5,77c0,0.7-0.4,1.2-1,1.5c-0.6,0.3-1.3,0.1-1.8-0.4s-0.6-1.1-0.4-1.8
		c0.3-0.6,0.8-1,1.5-1c0.5,0,0.8,0.2,1.1,0.5C66.3,76.1,66.5,76.5,66.5,77L66.5,77z M66.5,68.3c0,0.7-0.4,1.3-0.9,1.5
		c-0.6,0.3-1.3,0.1-1.8-0.4c-0.5-0.5-0.7-1.1-0.4-1.8c0.3-0.7,0.8-1,1.5-1C65.7,66.8,66.5,67.5,66.5,68.3L66.5,68.3z M66.5,59.1
		c0,0.7-0.4,1.2-1,1.5c-0.6,0.3-1.3,0.1-1.8-0.4c-0.5-0.5-0.6-1.1-0.4-1.8c0.3-0.6,0.8-1,1.5-1c0.5,0,0.8,0.2,1.1,0.5
		C66.3,58.3,66.5,58.7,66.5,59.1L66.5,59.1z M76.6,59.1c0,0.7-0.4,1.3-1,1.5c-0.7,0.3-1.3,0.1-1.8-0.4c-0.5-0.5-0.6-1.2-0.4-1.8
		c0.3-0.7,0.8-1,1.5-1C75.9,57.5,76.6,58.2,76.6,59.1c0,0.7-0.4,1.3-1,1.5c-0.7,0.3-1.3,0.1-1.8-0.4c-0.5-0.5-0.6-1.2-0.4-1.8
		c0.3-0.7,0.8-1,1.5-1C75.9,57.5,76.6,58.2,76.6,59.1L76.6,59.1z M66.5,59.1c0,0.7-0.4,1.2-1,1.5c-0.6,0.3-1.3,0.1-1.8-0.4
		c-0.5-0.5-0.6-1.1-0.4-1.8c0.3-0.6,0.8-1,1.5-1c0.5,0,0.8,0.2,1.1,0.5C66.3,58.3,66.5,58.7,66.5,59.1L66.5,59.1z M66.5,68.3
		c0,0.7-0.4,1.3-0.9,1.5c-0.6,0.3-1.3,0.1-1.8-0.4c-0.5-0.5-0.7-1.1-0.4-1.8c0.3-0.7,0.8-1,1.5-1C65.7,66.8,66.5,67.5,66.5,68.3
		L66.5,68.3z M66.5,77c0,0.7-0.4,1.2-1,1.5c-0.6,0.3-1.3,0.1-1.8-0.4s-0.6-1.1-0.4-1.8c0.3-0.6,0.8-1,1.5-1c0.5,0,0.8,0.2,1.1,0.5
		C66.3,76.1,66.5,76.5,66.5,77L66.5,77z M56.3,59.1c0,0.7-0.4,1.2-1,1.5c-0.6,0.3-1.3,0.1-1.8-0.4c-0.5-0.5-0.7-1.1-0.4-1.8
		s0.8-1,1.5-1c0.5,0,0.8,0.2,1.1,0.5C56.2,58.3,56.3,58.7,56.3,59.1L56.3,59.1z M56.3,68.3c0,0.7-0.4,1.3-0.9,1.5
		c-0.6,0.3-1.3,0.2-1.8-0.3c-0.5-0.5-0.7-1.1-0.4-1.8c0.3-0.7,0.8-1,1.5-1C55.6,66.8,56.3,67.5,56.3,68.3L56.3,68.3z M56.3,77
		c0,0.7-0.4,1.2-1,1.5c-0.6,0.3-1.3,0.1-1.8-0.4c-0.5-0.5-0.7-1.1-0.4-1.8s0.8-1,1.5-1c0.5,0,0.8,0.2,1.1,0.5
		C56.2,76.1,56.3,76.5,56.3,77L56.3,77z M83.5,36.8v41.4c0,3.3-2.6,5.8-5.8,5.8h-26c-3.3,0-5.8-2.6-5.8-5.8V36.8
		c0-3.3,2.6-5.8,5.8-5.8h26C80.9,31,83.5,33.7,83.5,36.8z M58.3,77c0-1.4-0.8-2.7-2.1-3.3c-1.3-0.6-2.9-0.3-3.9,0.7
		c-1,1-1.3,2.5-0.8,3.8c0.6,1.3,1.8,2.2,3.3,2.2c0.9,0,1.9-0.4,2.5-1C57.9,78.8,58.3,77.9,58.3,77L58.3,77z M58.3,68.3
		c0-1.4-0.8-2.7-2.1-3.3c-1.3-0.6-2.9-0.3-3.9,0.7s-1.3,2.5-0.8,3.8c0.6,1.3,1.8,2.2,3.3,2.2c0.9,0,1.9-0.4,2.5-1
		C57.8,70.2,58.3,69.3,58.3,68.3L58.3,68.3z M58.3,59.1c0-1.4-0.8-2.7-2.1-3.3c-1.3-0.6-2.9-0.3-3.9,0.7c-1,1-1.3,2.5-0.8,3.8
		c0.6,1.3,1.8,2.2,3.3,2.2c0.9,0,1.9-0.4,2.5-1C57.8,61,58.3,60.1,58.3,59.1L58.3,59.1z M68.4,77c0-1.4-0.8-2.7-2.2-3.3
		c-1.3-0.6-2.9-0.3-3.9,0.7c-1,1-1.3,2.5-0.7,3.9c0.6,1.3,1.9,2.2,3.3,2.2c0.9,0,1.9-0.4,2.5-1C68.1,78.8,68.4,77.9,68.4,77L68.4,77
		z M68.4,68.3c0-1.4-0.8-2.7-2.2-3.3c-1.3-0.6-2.9-0.3-3.9,0.7s-1.3,2.5-0.7,3.9c0.6,1.3,1.9,2.2,3.3,2.2
		C66.9,71.9,68.4,70.3,68.4,68.3L68.4,68.3z M68.4,59.1c0-1.4-0.8-2.7-2.2-3.3c-1.3-0.6-2.9-0.3-3.9,0.7s-1.3,2.5-0.7,3.9
		c0.6,1.3,1.9,2.2,3.3,2.2C66.9,62.7,68.4,61.1,68.4,59.1L68.4,59.1z M78.6,68.3C78.5,66.5,76.9,65,75,65c-1.9,0-3.4,1.5-3.5,3.3V77
		c0.1,1.9,1.7,3.3,3.5,3.3c1.9,0,3.4-1.5,3.5-3.3V68.3z M78.6,59.1c0-1.5-0.8-2.8-2.2-3.3c-1.3-0.6-2.9-0.3-3.9,0.7
		c-1,1-1.3,2.6-0.7,3.9c0.6,1.3,1.9,2.2,3.3,2.1C77,62.7,78.6,61.1,78.6,59.1L78.6,59.1z M78.6,39c0-1.6-1.3-2.9-2.9-2.9H54
		c-1.6,0-2.9,1.3-2.9,2.9v11.5c0,1.6,1.3,2.9,2.9,2.9h21.6c1.6,0,2.9-1.3,2.9-2.9L78.6,39z M76.6,68.3V77c-0.1,0.8-0.7,1.5-1.6,1.5
		c-0.8,0-1.6-0.7-1.6-1.5v-8.6c0.1-0.8,0.7-1.5,1.6-1.5C75.9,66.9,76.5,67.5,76.6,68.3z M76.6,59.1c0,0.7-0.4,1.3-1,1.5
		c-0.7,0.3-1.3,0.1-1.8-0.4c-0.5-0.5-0.6-1.2-0.4-1.8c0.3-0.7,0.8-1,1.5-1C75.9,57.5,76.6,58.2,76.6,59.1L76.6,59.1z M66.5,59.1
		c0,0.7-0.4,1.2-1,1.5c-0.6,0.3-1.3,0.1-1.8-0.4c-0.5-0.5-0.6-1.1-0.4-1.8c0.3-0.6,0.8-1,1.5-1c0.5,0,0.8,0.2,1.1,0.5
		C66.3,58.3,66.5,58.7,66.5,59.1L66.5,59.1z M66.5,68.3c0,0.7-0.4,1.3-0.9,1.5c-0.6,0.3-1.3,0.1-1.8-0.4c-0.5-0.5-0.7-1.1-0.4-1.8
		c0.3-0.7,0.8-1,1.5-1C65.7,66.8,66.5,67.5,66.5,68.3L66.5,68.3z M66.5,77c0,0.7-0.4,1.2-1,1.5c-0.6,0.3-1.3,0.1-1.8-0.4
		s-0.6-1.1-0.4-1.8c0.3-0.6,0.8-1,1.5-1c0.5,0,0.8,0.2,1.1,0.5C66.3,76.1,66.5,76.5,66.5,77L66.5,77z M56.3,59.1
		c0,0.7-0.4,1.2-1,1.5c-0.6,0.3-1.3,0.1-1.8-0.4c-0.5-0.5-0.7-1.1-0.4-1.8s0.8-1,1.5-1c0.5,0,0.8,0.2,1.1,0.5
		C56.2,58.3,56.3,58.7,56.3,59.1L56.3,59.1z M56.3,68.3c0,0.7-0.4,1.3-0.9,1.5c-0.6,0.3-1.3,0.2-1.8-0.3c-0.5-0.5-0.7-1.1-0.4-1.8
		c0.3-0.7,0.8-1,1.5-1C55.6,66.8,56.3,67.5,56.3,68.3L56.3,68.3z M56.3,77c0,0.7-0.4,1.2-1,1.5c-0.6,0.3-1.3,0.1-1.8-0.4
		c-0.5-0.5-0.7-1.1-0.4-1.8s0.8-1,1.5-1c0.5,0,0.8,0.2,1.1,0.5C56.2,76.1,56.3,76.5,56.3,77c0,0.7-0.4,1.2-1,1.5
		c-0.6,0.3-1.3,0.1-1.8-0.4c-0.5-0.5-0.7-1.1-0.4-1.8s0.8-1,1.5-1c0.5,0,0.8,0.2,1.1,0.5C56.2,76.1,56.3,76.5,56.3,77L56.3,77z
		 M56.3,68.3c0,0.7-0.4,1.3-0.9,1.5c-0.6,0.3-1.3,0.2-1.8-0.3c-0.5-0.5-0.7-1.1-0.4-1.8c0.3-0.7,0.8-1,1.5-1
		C55.6,66.8,56.3,67.5,56.3,68.3L56.3,68.3z M56.3,59.1c0,0.7-0.4,1.2-1,1.5c-0.6,0.3-1.3,0.1-1.8-0.4c-0.5-0.5-0.7-1.1-0.4-1.8
		s0.8-1,1.5-1c0.5,0,0.8,0.2,1.1,0.5C56.2,58.3,56.3,58.7,56.3,59.1L56.3,59.1z M66.5,68.3c0,0.7-0.4,1.3-0.9,1.5
		c-0.6,0.3-1.3,0.1-1.8-0.4c-0.5-0.5-0.7-1.1-0.4-1.8c0.3-0.7,0.8-1,1.5-1C65.7,66.8,66.5,67.5,66.5,68.3L66.5,68.3z M66.5,59.1
		c0,0.7-0.4,1.2-1,1.5c-0.6,0.3-1.3,0.1-1.8-0.4c-0.5-0.5-0.6-1.1-0.4-1.8c0.3-0.6,0.8-1,1.5-1c0.5,0,0.8,0.2,1.1,0.5
		C66.3,58.3,66.5,58.7,66.5,59.1L66.5,59.1z M76.6,59.1c0,0.7-0.4,1.3-1,1.5c-0.7,0.3-1.3,0.1-1.8-0.4c-0.5-0.5-0.6-1.2-0.4-1.8
		c0.3-0.7,0.8-1,1.5-1C75.9,57.5,76.6,58.2,76.6,59.1c0,0.7-0.4,1.3-1,1.5c-0.7,0.3-1.3,0.1-1.8-0.4c-0.5-0.5-0.6-1.2-0.4-1.8
		c0.3-0.7,0.8-1,1.5-1C75.9,57.5,76.6,58.2,76.6,59.1L76.6,59.1z M66.5,59.1c0,0.7-0.4,1.2-1,1.5c-0.6,0.3-1.3,0.1-1.8-0.4
		c-0.5-0.5-0.6-1.1-0.4-1.8c0.3-0.6,0.8-1,1.5-1c0.5,0,0.8,0.2,1.1,0.5C66.3,58.3,66.5,58.7,66.5,59.1L66.5,59.1z M66.5,68.3
		c0,0.7-0.4,1.3-0.9,1.5c-0.6,0.3-1.3,0.1-1.8-0.4c-0.5-0.5-0.7-1.1-0.4-1.8c0.3-0.7,0.8-1,1.5-1C65.7,66.8,66.5,67.5,66.5,68.3
		L66.5,68.3z M56.3,59.1c0,0.7-0.4,1.2-1,1.5c-0.6,0.3-1.3,0.1-1.8-0.4c-0.5-0.5-0.7-1.1-0.4-1.8s0.8-1,1.5-1c0.5,0,0.8,0.2,1.1,0.5
		C56.2,58.3,56.3,58.7,56.3,59.1L56.3,59.1z M56.3,68.3c0,0.7-0.4,1.3-0.9,1.5c-0.6,0.3-1.3,0.2-1.8-0.3c-0.5-0.5-0.7-1.1-0.4-1.8
		c0.3-0.7,0.8-1,1.5-1C55.6,66.8,56.3,67.5,56.3,68.3L56.3,68.3z M56.3,77c0,0.7-0.4,1.2-1,1.5c-0.6,0.3-1.3,0.1-1.8-0.4
		c-0.5-0.5-0.7-1.1-0.4-1.8s0.8-1,1.5-1c0.5,0,0.8,0.2,1.1,0.5C56.2,76.1,56.3,76.5,56.3,77L56.3,77z M56.3,59.1L56.3,59.1
		c0,0.7-0.4,1.2-1,1.5c-0.6,0.3-1.3,0.1-1.8-0.4c-0.5-0.5-0.7-1.1-0.4-1.8s0.8-1,1.5-1c0.5,0,0.8,0.2,1.1,0.5
		C56.2,58.3,56.3,58.7,56.3,59.1L56.3,59.1z M66.5,68.3L66.5,68.3c0,0.7-0.4,1.3-0.9,1.5c-0.6,0.3-1.3,0.1-1.8-0.4
		c-0.5-0.5-0.7-1.1-0.4-1.8c0.3-0.7,0.8-1,1.5-1C65.7,66.8,66.5,67.5,66.5,68.3L66.5,68.3z M66.5,59.1L66.5,59.1
		c0,0.7-0.4,1.2-1,1.5c-0.6,0.3-1.3,0.1-1.8-0.4c-0.5-0.5-0.6-1.1-0.4-1.8c0.3-0.6,0.8-1,1.5-1c0.5,0,0.8,0.2,1.1,0.5
		C66.3,58.3,66.5,58.7,66.5,59.1L66.5,59.1z M76.6,59.1L76.6,59.1c0,0.7-0.4,1.3-1,1.5c-0.7,0.3-1.3,0.1-1.8-0.4
		c-0.5-0.5-0.6-1.2-0.4-1.8c0.3-0.7,0.8-1,1.5-1C75.9,57.5,76.6,58.2,76.6,59.1L76.6,59.1c0,0.7-0.4,1.3-1,1.5
		c-0.7,0.3-1.3,0.1-1.8-0.4c-0.5-0.5-0.6-1.2-0.4-1.8c0.3-0.7,0.8-1,1.5-1C75.9,57.5,76.6,58.2,76.6,59.1L76.6,59.1z M66.5,59.1
		L66.5,59.1c0,0.7-0.4,1.2-1,1.5c-0.6,0.3-1.3,0.1-1.8-0.4c-0.5-0.5-0.6-1.1-0.4-1.8c0.3-0.6,0.8-1,1.5-1c0.5,0,0.8,0.2,1.1,0.5
		C66.3,58.3,66.5,58.7,66.5,59.1L66.5,59.1z M66.5,68.3L66.5,68.3c0,0.7-0.4,1.3-0.9,1.5c-0.6,0.3-1.3,0.1-1.8-0.4
		c-0.5-0.5-0.7-1.1-0.4-1.8c0.3-0.7,0.8-1,1.5-1C65.7,66.8,66.5,67.5,66.5,68.3L66.5,68.3z M56.3,59.1c0,0.7-0.4,1.2-1,1.5
		c-0.6,0.3-1.3,0.1-1.8-0.4c-0.5-0.5-0.7-1.1-0.4-1.8s0.8-1,1.5-1c0.5,0,0.8,0.2,1.1,0.5C56.2,58.3,56.3,58.7,56.3,59.1
		c0,0.7-0.4,1.2-1,1.5c-0.6,0.3-1.3,0.1-1.8-0.4c-0.5-0.5-0.7-1.1-0.4-1.8s0.8-1,1.5-1c0.5,0,0.8,0.2,1.1,0.5
		C56.2,58.3,56.3,58.7,56.3,59.1L56.3,59.1z M66.5,59.1c0,0.7-0.4,1.2-1,1.5c-0.6,0.3-1.3,0.1-1.8-0.4c-0.5-0.5-0.6-1.1-0.4-1.8
		c0.3-0.6,0.8-1,1.5-1c0.5,0,0.8,0.2,1.1,0.5C66.3,58.3,66.5,58.7,66.5,59.1c0,0.7-0.4,1.2-1,1.5c-0.6,0.3-1.3,0.1-1.8-0.4
		c-0.5-0.5-0.6-1.1-0.4-1.8c0.3-0.6,0.8-1,1.5-1c0.5,0,0.8,0.2,1.1,0.5C66.3,58.3,66.5,58.7,66.5,59.1L66.5,59.1z M56.3,59.1
		c0,0.7-0.4,1.2-1,1.5c-0.6,0.3-1.3,0.1-1.8-0.4c-0.5-0.5-0.7-1.1-0.4-1.8s0.8-1,1.5-1c0.5,0,0.8,0.2,1.1,0.5
		C56.2,58.3,56.3,58.7,56.3,59.1L56.3,59.1z M60.3,29.1v-6.7c0-0.6-0.2-1-0.6-1.4c-0.4-0.4-0.8-0.6-1.4-0.6H23.5c-1,0-2,0.8-2,2v5.7
		c0,0.6,0.2,1,0.6,1.4c0.4,0.4,0.8,0.6,1.4,0.6h24.6c1.1-0.6,2.3-0.8,3.5-0.8L60.3,29.1z"/>
</g>
</svg>
