<?xml version="1.0" encoding="utf-8"?>
<!-- Generator: Adobe Illustrator 26.1.0, SVG Export Plug-In . SVG Version: 6.00 Build 0)  -->
<svg version="1.1" id="Layer_1" xmlns="http://www.w3.org/2000/svg" xmlns:xlink="http://www.w3.org/1999/xlink" x="0px" y="0px"
	 viewBox="0 0 90 90" style="enable-background:new 0 0 90 90;" xml:space="preserve">
<style type="text/css">
	
		.st0{clip-path:url(#SVGID_00000055700440147728312160000012363640210398751393_);fill:url(#SVGID_00000084518120315359378000000008201500993528984758_);}
</style>
<g>
	<defs>
		<rect id="SVGID_1_" width="90" height="90"/>
	</defs>
	<clipPath id="SVGID_00000075859288180770980650000008334312033767885447_">
		<use xlink:href="#SVGID_1_"  style="overflow:visible;"/>
	</clipPath>
	
		<linearGradient id="SVGID_00000090995401497323323380000016708912494798906781_" gradientUnits="userSpaceOnUse" x1="7" y1="45" x2="83" y2="45">
		<stop  offset="0" style="stop-color:#8BC53F"/>
		<stop  offset="1" style="stop-color:#00ADEE"/>
	</linearGradient>
	
		<path style="clip-path:url(#SVGID_00000075859288180770980650000008334312033767885447_);fill:url(#SVGID_00000090995401497323323380000016708912494798906781_);" d="
		M66.8,8.8v1.7H23.2V8.8c0-0.5,0.2-0.9,0.5-1.3c0.3-0.3,0.7-0.5,1.2-0.5h40c0.5,0,0.9,0.2,1.3,0.5C66.6,7.9,66.8,8.4,66.8,8.8
		L66.8,8.8z M71,13.4V47c0,0.1-0.1,0.3-0.2,0.4c-0.1,0.1-0.2,0.2-0.4,0.2h-8.1c-2.9,0-5.7,1.4-7.4,3.8l-0.9,1.3l0,0
		c-0.2,0.3-0.5,0.5-0.8,0.4H36.7c-0.3,0-0.5-0.1-0.7-0.4l-1.5-1.8c-1.7-2.1-4.3-3.4-7.1-3.4h-8c-0.3,0-0.5-0.2-0.5-0.5V13.4
		c0-0.5,0.5-0.9,0.9-0.9H70C70.5,12.5,70.9,12.9,71,13.4L71,13.4z M50.8,38.3c0-0.3-0.1-0.5-0.3-0.6c-0.2-0.2-0.5-0.3-0.6-0.3H25.2
		c-0.5,0-0.9,0.5-0.9,0.9c0,0.5,0.5,0.9,0.9,0.9h24.6c0.3,0,0.5-0.1,0.6-0.3C50.7,38.8,50.8,38.6,50.8,38.3L50.8,38.3z M50.8,29.5
		c0-0.3-0.1-0.5-0.3-0.6c-0.2-0.2-0.5-0.3-0.6-0.3H25.2c-0.5,0-0.9,0.5-0.9,0.9c0,0.5,0.5,0.9,0.9,0.9h24.6
		C50.3,30.5,50.8,30.1,50.8,29.5L50.8,29.5z M50.8,21.6c0-0.3-0.1-0.5-0.3-0.6s-0.5-0.3-0.6-0.3H25.2c-0.5,0-0.9,0.5-0.9,0.9
		c0,0.5,0.5,0.9,0.9,0.9h24.6C50.3,22.6,50.8,22.1,50.8,21.6L50.8,21.6z M58.1,25.6V25c0-1.4,1.1-2.5,2.5-2.5h0.5
		c1.2,0,2.2,1,2.2,2.2c0,0.5,0.5,0.9,0.9,0.9c0.5,0,0.9-0.5,0.9-0.9c0-2-1.5-3.8-3.5-4v-1.4c0-0.5-0.5-0.9-0.9-0.9
		c-0.5,0-0.9,0.5-0.9,0.9v1.5c-2.1,0.4-3.7,2.2-3.7,4.3V26c0,1.1,0.5,2.2,1.3,3c0.8,0.8,1.9,1.2,3.1,1.1c1.5,0,2.7,1.2,2.7,2.7
		c0,1.6-1.2,2.7-2.7,2.7c-1.4-0.1-2.5-1.2-2.5-2.6v-0.3c0-0.5-0.5-0.9-0.9-0.9c-0.5,0-0.9,0.5-0.9,0.9v0.5c0,2,1.5,3.8,3.5,4.3v1.1
		c0,0.5,0.5,0.9,0.9,0.9c0.5,0,0.9-0.5,0.9-0.9v-1.3c3-0.6,4.9-4.3,2.6-7.7c-0.8-1-2.1-1.6-3.4-1.5c-0.7,0-1.4-0.2-1.8-0.6
		C58.4,27,58.1,26.3,58.1,25.6L58.1,25.6z M82,49.4H62.5c-1.6,0-3.1,0.5-4.3,1.5c-0.5,0.4-1,0.9-1.5,1.5l-0.1,0.1l-0.9,1.3l0,0
		c-0.5,0.7-1.4,1.2-2.4,1.2H36.7c-0.5,0-0.8-0.1-1.3-0.3c-0.4-0.2-0.7-0.5-0.9-0.8L33,52c-1.4-1.6-3.4-2.7-5.6-2.7H8
		c-0.5,0-0.9,0.5-0.9,0.9v13.9c0,0.3,0.1,0.5,0.3,0.6C7.5,65,7.8,65.1,8,65.1h22.3c1.6,0.5,3.2,1.6,4.3,2.9l1.5,1.8l0,0
		c0.2,0.2,0.5,0.4,0.7,0.4h16.7c0.3,0,0.6-0.2,0.8-0.4l0.9-1.3c1.1-1.6,2.7-2.7,4.6-3.4h22.3c0.3,0,0.5-0.1,0.6-0.3
		c0.2-0.2,0.3-0.5,0.3-0.6V50.4c0-0.3-0.1-0.5-0.3-0.6C82.5,49.5,82.3,49.4,82,49.4L82,49.4z M82,67.2H62.4c-2.3,0-4.5,1.2-5.8,3
		l-0.9,1.3l0,0c-0.5,0.7-1.4,1.2-2.3,1.2H36.7c-0.8,0-1.6-0.4-2.2-1.1L33,69.8c-1.4-1.6-3.4-2.7-5.5-2.7H7.9c-0.5,0-0.9,0.5-0.9,0.9
		V82c0,0.3,0.1,0.5,0.3,0.6s0.5,0.3,0.6,0.3H82c0.3,0,0.5-0.1,0.6-0.3c0.2-0.2,0.3-0.5,0.3-0.6V68.1C83,67.5,82.5,67.2,82,67.2
		L82,67.2z"/>
</g>
</svg>
