<?xml version="1.0" encoding="utf-8"?>
<!-- Generator: Adobe Illustrator 26.1.0, SVG Export Plug-In . SVG Version: 6.00 Build 0)  -->
<svg version="1.1" id="Layer_1" xmlns="http://www.w3.org/2000/svg" xmlns:xlink="http://www.w3.org/1999/xlink" x="0px" y="0px"
	 viewBox="0 0 90 90" style="enable-background:new 0 0 90 90;" xml:space="preserve">
<style type="text/css">
	
		.st0{clip-path:url(#SVGID_00000127028895407354677690000004916815068439557043_);fill:url(#SVGID_00000065788923205062558560000017382211630354870693_);}
</style>
<g>
	<defs>
		<rect id="SVGID_1_" width="90" height="90"/>
	</defs>
	<clipPath id="SVGID_00000168810261765482869290000016835561205642688936_">
		<use xlink:href="#SVGID_1_"  style="overflow:visible;"/>
	</clipPath>
	
		<linearGradient id="SVGID_00000023992978413599338860000006481364217695780008_" gradientUnits="userSpaceOnUse" x1="7.5" y1="44.95" x2="82.5" y2="44.95">
		<stop  offset="0" style="stop-color:#8BC53F"/>
		<stop  offset="1" style="stop-color:#00ADEE"/>
	</linearGradient>
	
		<path style="clip-path:url(#SVGID_00000168810261765482869290000016835561205642688936_);fill:url(#SVGID_00000023992978413599338860000006481364217695780008_);" d="
		M74.8,23.2v7.1c-1-0.9-2.4-1.5-3.9-1.5h-6V18.3h5c1.3,0,2.5,0.5,3.4,1.4C74.3,20.6,74.8,21.9,74.8,23.2L74.8,23.2z M63.2,10.8v18
		H22.3V18.5c0-0.2,0-0.4,0.1-0.6h4.9c1.3,0,2.5-0.6,3.4-1.4c0.9-0.9,1.4-2.1,1.4-3.4V8C32.2,8,32.4,8,32.7,8h27.6
		C61.9,8,63.2,9.2,63.2,10.8L63.2,10.8z M58.9,22.7c0-0.3-0.1-0.5-0.3-0.6c-0.2-0.2-0.5-0.3-0.6-0.3H27.4c-0.6,0-0.9,0.5-0.9,0.9
		c0,0.6,0.5,0.9,0.9,0.9h30.5c0.3,0,0.5-0.1,0.6-0.3C58.8,23.3,58.9,23,58.9,22.7L58.9,22.7z M60.4,14.6c0-0.3-0.1-0.5-0.3-0.6
		c-0.2-0.2-0.5-0.3-0.6-0.3H38.4l0,0c-0.6,0-0.9,0.5-0.9,0.9c0,0.6,0.5,0.9,0.9,0.9h21l0,0c0.3,0,0.5-0.1,0.6-0.3
		C60.3,15.2,60.4,14.9,60.4,14.6L60.4,14.6z M29.7,9.8l-1.9,1.9l-3.9,3.9c-0.1,0.1,0,0.4,0.1,0.4h3.1c1.6,0,2.8-1.3,2.8-2.8V9.9
		C30.1,9.6,29.8,9.5,29.7,9.8L29.7,9.8z M12.3,12c-2.7,0-4.8,2.1-4.8,4.8v13.4c1-0.9,2.4-1.5,3.9-1.5h9V18.5c0-0.6,0.2-1.3,0.5-1.9
		c0.3-0.6,0.6-1,0.9-1.4l3.1-3.1L12.3,12z M74.8,34.5v16.8h-41c-3.7,0-6.7,3-6.7,6.7v13.8H11.4c-2.1,0-3.9-1.7-3.9-3.9V34.5
		c0-2.1,1.7-3.9,3.9-3.9H71c1,0,2,0.4,2.7,1.1C74.4,32.5,74.8,33.4,74.8,34.5L74.8,34.5z M30.7,37.7c0-1.6-1.3-2.8-2.8-2.8H14.7
		c-1.6,0-2.8,1.3-2.8,2.8v8.3c0,1.6,1.3,2.8,2.8,2.8h13.1c1.6,0,2.8-1.3,2.8-2.8C30.7,45.9,30.7,37.7,30.7,37.7z M27.9,36.7H14.7
		c-0.6,0-0.9,0.5-0.9,0.9v8.3c0,0.3,0.1,0.5,0.3,0.6c0.2,0.2,0.5,0.3,0.6,0.3h13.1c0.3,0,0.5-0.1,0.6-0.3c0.2-0.2,0.3-0.5,0.3-0.6
		v-8.3c0-0.3-0.1-0.5-0.3-0.6C28.4,36.8,28.1,36.7,27.9,36.7L27.9,36.7z M70.4,65.4c-0.9,0-1.7,0.6-2,1.3c-0.4,0.8-0.2,1.7,0.5,2.4
		s1.6,0.8,2.4,0.5c0.8-0.4,1.4-1.1,1.4-2C72.6,66.4,71.6,65.4,70.4,65.4L70.4,65.4z M41.5,65.4c-0.9,0-1.7,0.6-2,1.3
		c-0.4,0.8-0.2,1.7,0.5,2.4c0.6,0.6,1.6,0.8,2.4,0.5c0.8-0.4,1.4-1.1,1.4-2C43.6,66.4,42.7,65.4,41.5,65.4L41.5,65.4z M55.7,63.1
		c-1.7,0-3.4,1.1-4,2.8c-0.6,1.7-0.3,3.6,0.9,4.8c1.3,1.3,3.1,1.7,4.8,0.9c1.7-0.6,2.8-2.3,2.8-4C60.1,65.2,58.2,63.1,55.7,63.1z
		 M82.5,57.9v19.3c0,1.3-0.5,2.5-1.4,3.4s-2.1,1.4-3.4,1.4H33.8c-2.7,0-4.8-2.1-4.8-4.8V57.9c0-2.7,2.1-4.8,4.8-4.8h43.9
		C80.4,53.2,82.5,55.3,82.5,57.9L82.5,57.9z M79.7,61.5L79.7,61.5c0-0.3-0.1-0.5-0.3-0.6c-0.2-0.2-0.5-0.3-0.6-0.3
		c-2.1,0-3.9-1.7-3.9-3.9c0-0.3-0.1-0.5-0.3-0.6c-0.2-0.2-0.5-0.3-0.6-0.3H37.8c-0.6,0-0.9,0.5-0.9,0.9c0,1-0.4,2-1.1,2.7
		s-1.7,1.1-2.7,1.1c-0.6,0-0.9,0.5-0.9,0.9v12.1c0,0.3,0.1,0.5,0.3,0.6c0.2,0.2,0.5,0.3,0.6,0.3c1,0,2,0.4,2.7,1.1
		c0.6,0.7,1.1,1.7,1.1,2.7c0,0.3,0.1,0.5,0.3,0.6c0.2,0.2,0.5,0.3,0.6,0.3h36c0.3,0,0.5-0.1,0.6-0.3c0.2-0.2,0.3-0.5,0.3-0.6
		c0-2.1,1.7-3.9,3.9-3.9c0.3,0,0.5-0.1,0.6-0.3c0.2-0.2,0.3-0.5,0.3-0.6L79.7,61.5z M73.1,58.4c0.6,1.9,2,3.4,3.9,3.9
		c0.4,0.1,0.6,0.6,0.6,0.9V72c0,0.5-0.3,0.8-0.6,0.9c-1.8,0.6-3.3,2-3.9,3.9c-0.1,0.4-0.5,0.6-0.9,0.6H39.5c-0.4,0-0.7-0.3-0.9-0.6
		c-0.6-1.8-2-3.3-3.9-3.9c-0.4-0.1-0.6-0.6-0.6-0.9v-8.9c0-0.5,0.3-0.8,0.6-0.9c1.8-0.6,3.3-1.9,3.9-3.9c0.1-0.4,0.5-0.6,0.9-0.6
		h32.8C72.7,57.7,73.1,58,73.1,58.4z M45.6,67.6c0-1.7-1-3.1-2.5-3.8s-3.3-0.3-4.4,0.9c-1.2,1.2-1.5,2.9-0.9,4.4
		c0.6,1.6,2.1,2.5,3.8,2.5c1.1,0,2.1-0.5,2.8-1.2C45.2,69.7,45.6,68.7,45.6,67.6L45.6,67.6z M62.4,67.6c0-2.4-1.4-4.6-3.5-5.8
		c-2.1-1.1-4.7-1-6.7,0.4c-2,1.4-3.1,3.7-2.8,6.1c0.3,2.4,1.8,4.5,4,5.4c1.6,0.6,3.3,0.6,4.9,0C60.8,72.7,62.4,70.2,62.4,67.6
		L62.4,67.6z M74.4,67.6L74.4,67.6c0-1.7-1-3.1-2.5-3.8c-1.6-0.6-3.3-0.3-4.4,0.9c-1.2,1.2-1.5,2.9-0.9,4.4c0.6,1.6,2.1,2.5,3.8,2.5
		c1.1,0,2.1-0.5,2.8-1.2C74.1,69.7,74.4,68.7,74.4,67.6L74.4,67.6z"/>
</g>
</svg>
