<?xml version="1.0" encoding="utf-8"?>
<!-- Generator: Adobe Illustrator 26.1.0, SVG Export Plug-In . SVG Version: 6.00 Build 0)  -->
<svg version="1.1" id="Layer_1" xmlns="http://www.w3.org/2000/svg" xmlns:xlink="http://www.w3.org/1999/xlink" x="0px" y="0px"
	 viewBox="0 0 90 90" style="enable-background:new 0 0 90 90;" xml:space="preserve">
<style type="text/css">
	
		.st0{clip-path:url(#SVGID_00000023259836589729347970000009116906135335502490_);fill:url(#SVGID_00000090292503453259126750000005959773452533101479_);}
</style>
<g>
	<defs>
		<rect id="SVGID_1_" width="90" height="90"/>
	</defs>
	<clipPath id="SVGID_00000077320946808798180780000010450014055934781091_">
		<use xlink:href="#SVGID_1_"  style="overflow:visible;"/>
	</clipPath>
	
		<linearGradient id="SVGID_00000179611707889794070470000002213705111825435035_" gradientUnits="userSpaceOnUse" x1="5" y1="43.6098" x2="85" y2="43.6098">
		<stop  offset="0" style="stop-color:#8BC53F"/>
		<stop  offset="1" style="stop-color:#00ADEE"/>
	</linearGradient>
	
		<path style="clip-path:url(#SVGID_00000077320946808798180780000010450014055934781091_);fill:url(#SVGID_00000179611707889794070470000002213705111825435035_);" d="
		M45,40.4c-5.5,0-10,4.5-10,10c0,3.2,1.5,6,3.8,7.9c1.7,1.3,3.9,2.1,6.2,2.1c2.3,0,4.5-0.8,6.2-2.1c2.3-1.8,3.8-4.7,3.8-7.9
		C55,44.9,50.5,40.4,45,40.4z M54.3,59.9c-2.4,2.3-5.7,3.8-9.3,3.8c-3.6,0-6.9-1.5-9.3-3.8c-0.8,0.5-1.6,1.2-2.3,1.9
		c-3.1,3-5,7.3-5,11.9v1.7c0,0.9,0.7,1.7,1.7,1.7h30c0.9,0,1.7-0.7,1.7-1.7v-1.7c0-4.7-1.9-8.9-5-11.9
		C55.9,61.1,55.1,60.5,54.3,59.9z M68.3,40.4c-5.5,0-10,4.5-10,10c0,3.2,1.5,6,3.8,7.9c1.7,1.3,3.9,2.1,6.2,2.1s4.5-0.8,6.2-2.2
		c2.3-1.8,3.8-4.6,3.8-7.8C78.3,44.9,73.8,40.4,68.3,40.4z M77.7,59.9c-2.4,2.4-5.7,3.8-9.3,3.8c-2.9,0-5.5-0.9-7.7-2.5
		C63.3,64.7,65,69,65,73.8v1.7c0,0.6-0.1,1.1-0.3,1.7h18.6c0.9,0,1.7-0.7,1.7-1.7v-1.7C85,68,82.1,62.9,77.7,59.9L77.7,59.9z
		 M21.7,40.4c-5.5,0-10,4.5-10,10c0,3.2,1.5,6,3.8,7.8c1.7,1.4,3.8,2.2,6.2,2.2c2.3,0,4.5-0.8,6.2-2.1c2.3-1.8,3.8-4.7,3.8-7.9
		C31.7,44.9,27.2,40.4,21.7,40.4z M24.9,73.8c0-4.7,1.6-9,4.3-12.4c-2.1,1.5-4.8,2.4-7.6,2.4c-3.6,0-6.9-1.5-9.3-3.8
		C7.9,62.9,5,68,5,73.8v1.7c0,0.9,0.7,1.7,1.7,1.7h18.6c-0.2-0.5-0.3-1.1-0.3-1.7L24.9,73.8z M38.3,24.2l-1,5.9
		c-0.1,0.6,0.2,1.3,0.7,1.6c0.5,0.4,1.2,0.4,1.8,0.1l5.3-2.8l5.3,2.8c0.2,0.1,0.5,0.2,0.8,0.2c0.3,0,0.7-0.1,1-0.3
		c0.5-0.4,0.8-1,0.7-1.6l-1-5.9l4.3-4.2c0.5-0.4,0.6-1.1,0.4-1.7c-0.2-0.6-0.7-1-1.3-1.1l-5.9-0.9L46.5,11c-0.6-1.1-2.4-1.1-3,0
		l-2.6,5.4l-5.9,0.9c-0.6,0.1-1.2,0.5-1.3,1.1c-0.2,0.6,0,1.3,0.4,1.7L38.3,24.2z M61.6,30.9l-1,5.9c-0.1,0.6,0.2,1.3,0.7,1.6
		c0.5,0.4,1.2,0.4,1.8,0.1l5.3-2.8l5.3,2.8c0.2,0.1,0.5,0.2,0.8,0.2c0.3,0,0.7-0.1,1-0.3c0.5-0.4,0.8-1,0.7-1.6l-1-5.9l4.3-4.2
		c0.5-0.4,0.6-1.1,0.4-1.7c-0.2-0.6-0.7-1-1.3-1.1L72.5,23l-2.6-5.4c-0.6-1.1-2.4-1.1-3,0L64.2,23l-5.9,0.9
		c-0.6,0.1-1.2,0.5-1.3,1.1c-0.2,0.6,0,1.3,0.4,1.7L61.6,30.9z M15,30.9l-1,5.9c-0.1,0.6,0.2,1.3,0.7,1.6c0.5,0.4,1.2,0.4,1.8,0.1
		l5.3-2.8l5.3,2.8c0.2,0.1,0.5,0.2,0.8,0.2c0.3,0,0.7-0.1,1-0.3c0.5-0.4,0.8-1,0.7-1.6l-1-5.9l4.3-4.2c0.5-0.4,0.6-1.1,0.4-1.7
		c-0.2-0.6-0.7-1-1.3-1.1L25.8,23l-2.6-5.4c-0.6-1.1-2.4-1.1-3,0L17.5,23l-5.9,0.9C11,24,10.5,24.4,10.3,25c-0.2,0.6,0,1.3,0.4,1.7
		L15,30.9z"/>
</g>
</svg>
