<?xml version="1.0" encoding="utf-8"?>
<!-- Generator: Adobe Illustrator 26.1.0, SVG Export Plug-In . SVG Version: 6.00 Build 0)  -->
<svg version="1.1" id="Layer_1" xmlns="http://www.w3.org/2000/svg" xmlns:xlink="http://www.w3.org/1999/xlink" x="0px" y="0px"
	 viewBox="0 0 90 90" style="enable-background:new 0 0 90 90;" xml:space="preserve">
<style type="text/css">
	
		.st0{clip-path:url(#SVGID_00000156587741613390828750000010920237431917512378_);fill:url(#SVGID_00000000209561662055766280000018044517796950097846_);}
</style>
<g>
	<defs>
		<rect id="SVGID_1_" width="90" height="90"/>
	</defs>
	<clipPath id="SVGID_00000108280790463574847890000013432638847092961167_">
		<use xlink:href="#SVGID_1_"  style="overflow:visible;"/>
	</clipPath>
	
		<linearGradient id="SVGID_00000176004178458006417790000017892959706782523555_" gradientUnits="userSpaceOnUse" x1="6" y1="45" x2="84" y2="45">
		<stop  offset="0" style="stop-color:#8BC53F"/>
		<stop  offset="1" style="stop-color:#00ADEE"/>
	</linearGradient>
	
		<path style="clip-path:url(#SVGID_00000108280790463574847890000013432638847092961167_);fill:url(#SVGID_00000176004178458006417790000017892959706782523555_);" d="
		M67.4,38.6c-1.7-0.8-2.6-1.5-2.6-1.5c-0.2-0.1-0.4-0.2-0.6-0.2v-4.4c1.8,0.5,3.1,2.1,3.1,4V38.6z M64.2,20.8v9.6h0.6
		c1.6,0,2.9-1.3,2.9-2.9v-3.9c0-1.6-1.3-2.9-2.9-2.9H64.2z M6,10.8c0,1.3,0.5,2.5,1.4,3.4s2.1,1.4,3.4,1.4h49.8V8.8
		c0-1.6-1.3-2.9-2.9-2.9H10.8C9.5,6,8.3,6.4,7.4,7.3C6.6,8.3,6,9.5,6,10.8L6,10.8z M47.3,25.5H21c-1,0-1.9,0.8-1.9,1.9v7.7
		c0,0.6,0.2,1,0.6,1.4C20,36.8,20.4,37,21,37h26.3c0.6,0,1-0.2,1.4-0.6c0.4-0.4,0.6-0.8,0.6-1.4v-7.7c0-0.6-0.2-1-0.6-1.4
		C48.3,25.6,47.9,25.5,47.3,25.5L47.3,25.5z M62.4,18.2v19.9c-4.2,2.8-10.7,3.9-14.6,4.3c-3,0.3-5.2,2.8-5.2,5.7v8.7
		c0,0.2,0.6,12.7,10.1,21.9H11.7C8.6,78.8,6,76.2,6,73V15.5c1.3,1.3,3,2,4.8,2h50.8c0.2,0,0.4,0.1,0.6,0.2
		C62.3,17.9,62.4,18.1,62.4,18.2L62.4,18.2z M51.2,27.3c0-1-0.4-2-1.1-2.7c-0.7-0.6-1.8-1.1-2.8-1.1H21c-2.1,0-3.9,1.8-3.9,3.9v7.7
		c0,1,0.4,2,1.1,2.7s1.7,1.1,2.7,1.1h26.3c1,0,2-0.4,2.7-1.1c0.6-0.7,1.1-1.7,1.1-2.7v-7.8H51.2z M84,48.3v8.5
		C84,57,83,76.5,64.5,84L64.2,84l-0.4-0.2l0,0c-2.9-1.2-5.5-2.8-7.9-4.7c-0.1-0.1-0.1-0.1-0.2-0.2c-10.4-8.9-11.2-22-11.3-22.2v-8.7
		c0-1.9,1.5-3.6,3.4-3.9c4.9-0.5,11.3-1.8,15.5-4.5l0,0c0.6-0.4,1.3-0.4,1.9-0.1c4.7,2.6,9.8,4.3,15.2,4.8
		C82.4,44.7,84,46.3,84,48.3L84,48.3z M80.2,50c0-0.9-0.7-1.8-1.7-1.9c-4.7-0.7-9.2-2.2-13.5-4.3c-0.3-0.2-0.6-0.2-0.9,0
		c-4.4,2.5-10.2,3.6-14,4.1l0,0c-0.9,0.1-1.7,0.9-1.7,1.9v6.8c0.1,1.7,1.5,16.4,15.4,22.9c0.1,0.1,0.3,0.1,0.5,0.1
		c0.2,0,0.3,0,0.4-0.1c14-6.7,15.4-21.3,15.5-23V50z M65.4,46.2L65.4,46.2c3.6,1.7,7.4,2.9,11.3,3.6c0.9,0.2,1.6,1,1.6,1.9v4.9
		c-0.1,1.5-1.4,14.8-14,21.1c-12.6-6.3-13.9-19.6-14-21.1v-5.1c0-0.9,0.6-1.8,1.7-1.9c4.1-0.6,8-1.8,11.8-3.4
		C64.3,45.9,64.9,45.9,65.4,46.2L65.4,46.2z M71.8,53.9L71.8,53.9c-0.2-0.2-0.5-0.2-0.7-0.2c-0.3,0-0.5,0.2-0.6,0.4l-7.6,10.4
		L58,59.6l0,0c-0.4-0.4-1-0.4-1.4,0c-0.4,0.4-0.4,1,0,1.4l5.6,5.5c0.2,0.2,0.5,0.3,0.7,0.3h0.1c0.3,0,0.6-0.2,0.7-0.4L72,55.2
		C72.3,54.8,72.2,54.1,71.8,53.9L71.8,53.9z"/>
</g>
</svg>
