<?xml version="1.0" encoding="utf-8"?>
<!-- Generator: Adobe Illustrator 26.1.0, SVG Export Plug-In . SVG Version: 6.00 Build 0)  -->
<svg version="1.1" id="Layer_1" xmlns="http://www.w3.org/2000/svg" xmlns:xlink="http://www.w3.org/1999/xlink" x="0px" y="0px"
	 viewBox="0 0 90 90" style="enable-background:new 0 0 90 90;" xml:space="preserve">
<style type="text/css">
	
		.st0{clip-path:url(#SVGID_00000048481626563408978340000014926301591123982490_);fill:url(#SVGID_00000114770188037902482420000003588951547322630530_);}
</style>
<g>
	<defs>
		<rect id="SVGID_1_" width="90" height="90"/>
	</defs>
	<clipPath id="SVGID_00000117647198641939835390000006905397499392490897_">
		<use xlink:href="#SVGID_1_"  style="overflow:visible;"/>
	</clipPath>
	
		<linearGradient id="SVGID_00000082354264647805558710000010030549318595529896_" gradientUnits="userSpaceOnUse" x1="5" y1="45" x2="85" y2="45">
		<stop  offset="0" style="stop-color:#8BC53F"/>
		<stop  offset="1" style="stop-color:#00ADEE"/>
	</linearGradient>
	
		<path style="clip-path:url(#SVGID_00000117647198641939835390000006905397499392490897_);fill:url(#SVGID_00000082354264647805558710000010030549318595529896_);" d="
		M22.4,45.9L15.7,61l4.5,3.2l1.7-1.3c1.6-1.2,4.2-1.3,5.8-0.1l1.4,1.1c0.9,0.6,1.4,1.6,1.3,2.6c1.2-0.1,2.4,0.2,3.3,0.8l1.4,1.1
		c0.9,0.6,1.3,1.6,1.3,2.6c1.2-0.1,2.4,0.2,3.3,0.8l1.4,1.1c0.8,0.6,1.3,1.6,1.3,2.6c1.2-0.1,2.4,0.2,3.3,0.8l1.4,1.1
		c1.8,1.3,1.7,3.6-0.1,5L46.5,83l0.7,0.5h0c1,0.8,1.6,1.4,2.9,1.4c0.6,0,1.3-0.2,1.8-0.5c0.4-0.3,1.6-1.1,1.8-1.4
		c0.4-0.6,0.2-1.2-0.4-1.6l-2.4-1.8c-0.4-0.3-0.5-0.9-0.2-1.3c0.3-0.4,0.9-0.5,1.3-0.2l2.4,1.8c1,0.7,2.6,0.7,3.5,0
		c0.4-0.3,1.6-1.1,1.8-1.4c0.4-0.6,0.2-1.2-0.4-1.6l-5.3-4c-0.4-0.3-0.5-0.9-0.2-1.3c0.3-0.4,0.9-0.5,1.3-0.2l5.3,4
		c0.9,0.7,2.6,0.7,3.5,0c0.4-0.3,1.6-1.1,1.8-1.4c0.4-0.6,0.2-1.2-0.4-1.6l-5.3-4c-0.4-0.3-0.5-0.9-0.2-1.3c0.3-0.4,0.9-0.5,1.3-0.2
		l5.3,4c0.9,0.7,2.6,0.7,3.5,0c0.4-0.3,1.6-1.1,1.8-1.4c0.5-0.6,0.2-1.2-0.4-1.7l-2.2-1.6L58,57.7c-6.9-1.5-11,0.5-14.5,2.2
		c-4.4,2.2-7.8,3.8-13.8-1.3c-0.5-0.4-0.5-1.1,0-1.5l11.4-8.5l0,0c0,0,0.1-0.1,0.1-0.1L34.8,47L22.4,45.9z M19.4,41l-2.5-0.6
		c-1.6-0.4-3.7,0.1-4.3,1.5L5.1,58.7c-0.6,1.3,0.7,2.4,2.1,2.7L9.7,62c1.5,0.4,3.7-0.1,4.3-1.5l7.5-16.8C22,42.4,20.7,41.3,19.4,41
		L19.4,41z M73.1,40.4c-0.7,0.2-2.6,0.6-3.1,0.8c-1,0.5-1.9,1.4-1.4,2.5l7.6,17.1c0.8,1.2,2.7,1.6,4.2,1.3c0.7-0.2,2.6-0.6,3.1-0.8
		c1-0.5,1.9-1.4,1.4-2.5l-7.5-16.8C76.8,40.5,74.6,40,73.1,40.4L73.1,40.4z M74.3,61l-6.7-15.1L55.2,47l-13.2,3.2l-10.3,7.7
		c4.6,3.5,7.4,2.1,11,0.4c3.7-1.9,8.2-4.1,15.8-2.3c0.1,0,0.3,0.1,0.4,0.2l10.8,8.1L74.3,61z M46.3,79l-1.4-1.1
		c-1-0.7-2.6-0.7-3.6,0.1l-3.8,2.9c-0.8,0.6-0.9,1.4-0.1,2.1l1.4,1.1c1,0.7,2.6,0.7,3.6-0.1l3.8-2.9C46.9,80.4,47.1,79.6,46.3,79
		L46.3,79z M40.2,74.5l-1.4-1.1c-1-0.7-2.6-0.7-3.6,0.1l-3.8,2.9c-0.8,0.6-0.9,1.4-0.1,2.1l1.4,1.1c1,0.7,2.6,0.7,3.6-0.1l3.8-2.9
		C40.9,75.9,41,75.1,40.2,74.5L40.2,74.5z M34.2,70l-1.4-1.1c-1-0.7-2.6-0.7-3.6,0.1l-3.8,2.9c-0.8,0.6-0.9,1.4-0.1,2.1l1.4,1.1
		c1,0.7,2.6,0.7,3.6-0.1l3.8-2.9C34.8,71.4,35,70.6,34.2,70L34.2,70z M28.1,65.4l-1.4-1.1c-1-0.7-2.6-0.7-3.6,0.1l-3.8,2.9
		c-0.8,0.6-0.9,1.4-0.1,2.1l1.4,1.1c1,0.7,2.6,0.7,3.6-0.1l3.8-2.9C28.8,66.9,28.9,66.1,28.1,65.4L28.1,65.4z M45,47.7l10-2.5
		l2.2-0.2c5.5-7.6,8.6-16.9,9.2-26.4L44.6,10l-21,8.6c0.6,9.6,3.7,18.9,9.2,26.5l2.2,0.2l0,0L45,47.7z M59.6,44.8l2.2-0.2
		c5.4-8.6,8.5-18.7,9.1-29.1L44.5,5.1L19.1,15.5c0.6,10.4,3.7,20.5,9.1,29.1l2.2,0.2C25.2,37,22.2,27.6,21.8,18
		c0-0.4,0.2-0.8,0.6-0.9l21.9-8.9c0.2-0.1,0.5-0.1,0.7,0v0l22.8,9c0.4,0.1,0.6,0.5,0.6,0.9C68,23.4,67,28.5,65.3,33.2
		C63.9,37.4,61.9,41.3,59.6,44.8L59.6,44.8z M36.4,31.8c-1.6-2.8,1-6.2,4.1-5.3c0.9,0.2,1.7,0.8,2.2,1.7l0.6,1.1l4.8-4.8
		c2.3-2.3,6.2-0.7,6.2,2.6c0,0.9-0.4,1.9-1.1,2.6c-2.4,2.4-6.8,7.5-8.9,8.7c-1.7,1-4,0.4-5-1.3L36.4,31.8z M37.7,29.5
		c-0.1,0.5-0.1,1,0.2,1.4l3,5.2c0.5,0.9,1.6,1.2,2.5,0.7c1.8-1,6.3-6.2,8.5-8.4c1.1-1.1,0.3-3.1-1.3-3.1c-0.5,0-0.9,0.2-1.3,0.5
		l-6.5,6.5l-1.8-3.2C40.3,27.7,38.2,28,37.7,29.5L37.7,29.5z M55.3,23.9c-4-5.6-11.9-6.9-17.5-2.9c-5.6,4-6.9,11.9-2.9,17.5
		c4,5.6,11.9,6.9,17.5,2.9C58,37.3,59.3,29.5,55.3,23.9L55.3,23.9z M47.4,17c7.8,1.3,13.1,8.7,11.8,16.5
		c-1.3,7.8-8.7,13.1-16.5,11.8c-7.8-1.3-13.1-8.7-11.8-16.5C32.2,21,39.6,15.7,47.4,17L47.4,17z"/>
</g>
</svg>
