<?xml version="1.0" encoding="utf-8"?>
<!-- Generator: Adobe Illustrator 26.1.0, SVG Export Plug-In . SVG Version: 6.00 Build 0)  -->
<svg version="1.1" id="Layer_1" xmlns="http://www.w3.org/2000/svg" xmlns:xlink="http://www.w3.org/1999/xlink" x="0px" y="0px"
	 viewBox="0 0 90 90" style="enable-background:new 0 0 90 90;" xml:space="preserve">
<style type="text/css">
	
		.st0{clip-path:url(#SVGID_00000170957635617413866350000018423367525406419100_);fill:url(#SVGID_00000124137397377460308000000003765308680379328694_);}
</style>
<g>
	<defs>
		<rect id="SVGID_1_" width="90" height="90"/>
	</defs>
	<clipPath id="SVGID_00000051343520113171721780000004176554842061237905_">
		<use xlink:href="#SVGID_1_"  style="overflow:visible;"/>
	</clipPath>
	
		<linearGradient id="SVGID_00000096740195646305824410000004759792931755231877_" gradientUnits="userSpaceOnUse" x1="5.938" y1="45" x2="84.062" y2="45">
		<stop  offset="0" style="stop-color:#8BC53F"/>
		<stop  offset="1" style="stop-color:#00ADEE"/>
	</linearGradient>
	
		<path style="clip-path:url(#SVGID_00000051343520113171721780000004176554842061237905_);fill:url(#SVGID_00000096740195646305824410000004759792931755231877_);" d="
		M15,7.4v6.9l0,0c0,0.6-0.5,1.1-1.1,1.1H7.1c-0.1,0-0.3,0-0.3-0.1c-0.1-0.1,0-0.3,0.1-0.3l7.8-7.7C14.8,7.3,14.8,7.3,15,7.4
		C15,7.3,15,7.3,15,7.4L15,7.4z M59,8.9v29h-8.2c-3.1,0-5.5,2.4-5.5,5.5v5.8L38.8,54c-1,0.8-1.6,1.9-1.6,3.2v18.2H8.9
		c-1.6,0-2.9-1.3-2.9-2.9V17.3c0-0.1,0.1-0.2,0.2-0.2h7.8c1.6,0,2.9-1.3,2.9-2.9v-8C16.8,6.1,16.9,6,17,6H56C57.6,6,59,7.3,59,8.9
		L59,8.9z M34.9,65.7L34.9,65.7c0-0.3-0.1-0.5-0.3-0.7c-0.2-0.2-0.5-0.3-0.7-0.3H13.3c-0.6,0-0.9,0.5-0.9,0.9c0,0.5,0.5,0.9,0.9,0.9
		H34c0.3,0,0.6-0.1,0.7-0.3C34.8,66.2,34.9,66,34.9,65.7L34.9,65.7z M34.9,57.9L34.9,57.9c0-0.3-0.1-0.5-0.3-0.7
		c-0.2-0.2-0.5-0.3-0.7-0.3H13.3c-0.6,0-0.9,0.5-0.9,0.9c0,0.6,0.5,0.9,0.9,0.9H34c0.3,0,0.6-0.1,0.8-0.3
		C34.8,58.3,34.9,58.2,34.9,57.9L34.9,57.9z M34.9,50.1L34.9,50.1c0-0.3-0.1-0.5-0.3-0.7c-0.2-0.2-0.5-0.3-0.7-0.3H13.3
		c-0.6,0-0.9,0.5-0.9,0.9c0,0.6,0.5,0.9,0.9,0.9H34c0.3,0,0.6-0.1,0.8-0.3C34.9,50.5,35,50.3,34.9,50.1L34.9,50.1L34.9,50.1z
		 M40,42.6L40,42.6c0-0.3-0.1-0.5-0.3-0.7c-0.2-0.2-0.5-0.3-0.7-0.3H13.3c-0.6,0-0.9,0.5-0.9,0.9c0,0.6,0.5,0.9,0.9,0.9H39
		c0.3,0,0.6-0.1,0.8-0.3C40,43.1,40.1,42.8,40,42.6L40,42.6z M52.7,35.1c0-0.3-0.1-0.5-0.3-0.7c-0.2-0.2-0.4-0.3-0.7-0.3H13.3
		c-0.6,0-0.9,0.5-0.9,0.9c0,0.5,0.5,0.9,0.9,0.9h38.5c0.3,0,0.5-0.1,0.7-0.3C52.6,35.7,52.7,35.4,52.7,35.1L52.7,35.1z M52.7,28.4
		c0-0.3-0.1-0.5-0.3-0.7c-0.2-0.2-0.5-0.3-0.7-0.3H13.3c-0.6,0-0.9,0.5-0.9,0.9c0,0.6,0.5,0.9,0.9,0.9h38.5c0.3,0,0.5-0.1,0.7-0.3
		C52.6,28.8,52.7,28.6,52.7,28.4L52.7,28.4z M52.7,21.5c0-0.3-0.1-0.5-0.3-0.7c-0.2-0.2-0.5-0.3-0.7-0.3H13.3
		c-0.6,0-0.9,0.5-0.9,0.9c0,0.6,0.5,0.9,0.9,0.9h38.5C52.2,22.5,52.7,22.1,52.7,21.5L52.7,21.5z M65.9,70.6c-0.1,0-0.1,0.1-0.1,0.2
		s0,0.1,0.1,0.2L84,83.5c0.1-0.1,0.1-0.3,0.1-0.5V57.7c0-0.2-0.2-0.3-0.3-0.2L65.9,70.6z M57.2,70.6l-17.7-13
		c-0.1-0.1-0.3,0-0.3,0.2V83c0,0.2,0.2,0.3,0.3,0.2L57.1,71c0.1,0,0.1-0.1,0.1-0.2C57.2,70.8,57.2,70.7,57.2,70.6L57.2,70.6z
		 M61.5,56c-1.4,0-2.6,0.8-3.2,2.1c-0.6,1.3-0.3,2.7,0.8,3.8c0.9,0.9,2.4,1.3,3.8,0.8c1.3-0.6,2.1-1.8,2.1-3.2c0-0.9-0.4-1.8-1-2.4
		C63.2,56.4,62.3,56,61.5,56L61.5,56z M66.4,45.8L66.4,45.8c0.5,1.5,1.7,2.7,3.1,3.3c0.4,0.1,0.7,0.5,0.7,0.9v15
		c0,0.1,0,0.1-0.1,0.2l-6,4.4l-0.7-0.5c-1-0.8-2.5-0.8-3.6,0l-0.8,0.6L52.9,65l0,0c-0.1,0-0.1-0.1-0.1-0.2V50c0-0.4,0.3-0.8,0.7-0.9
		c1.5-0.5,2.7-1.7,3.2-3.2c0.1-0.4,0.5-0.7,0.9-0.7h7.8C65.7,45.2,66.2,45.4,66.4,45.8L66.4,45.8z M58.4,49.8c0,1.2,0.8,2.4,1.9,2.8
		c1.1,0.5,2.4,0.2,3.4-0.7c0.8-0.8,1.1-2.2,0.7-3.4c-0.5-1.1-1.6-1.9-2.8-1.9C59.7,46.7,58.4,48.1,58.4,49.8L58.4,49.8z M66.9,59.5
		c0-2.2-1.3-4.1-3.3-5c-2-0.8-4.3-0.4-5.8,1.1c-1.5,1.5-2,3.9-1.1,5.8c0.8,2,2.8,3.3,5,3.3C64.4,64.8,66.9,62.5,66.9,59.5L66.9,59.5
		z M60.4,49.8c0-0.7,0.5-1.1,1.1-1.1s1.1,0.5,1.1,1.1s-0.5,1.1-1.1,1.1S60.4,50.4,60.4,49.8z M80.9,83.7L62.3,70.7l0,0
		c-0.4-0.3-0.9-0.3-1.3,0l-18.8,13C41.9,83.7,42,84,42.2,84h38.5C80.9,84,81,83.8,80.9,83.7L80.9,83.7z M72.1,39.9H50.8
		c-2,0-3.6,1.6-3.6,3.6v17.3l3.6,2.6V48.3c0-0.6,0.5-0.9,0.9-0.9c1.8,0,3.2-1.4,3.2-3.2c0-0.6,0.5-0.9,0.9-0.9H67
		c0.3,0,0.5,0.1,0.7,0.3c0.2,0.2,0.3,0.5,0.3,0.7c0,1.8,1.4,3.2,3.2,3.2c0.3,0,0.5,0.1,0.7,0.3c0.2,0.2,0.3,0.5,0.3,0.7v15.3
		l3.5-2.5V43.5c0-0.9-0.4-1.9-1-2.5S73.1,39.9,72.1,39.9L72.1,39.9z M45,52l-4.6,3.4l0,0c-0.1,0.1-0.1,0.2,0,0.3l4.6,3.5
		c0.1,0.1,0.3,0,0.3-0.2v-6.9C45.2,52,45,51.9,45,52L45,52z M83,55.3L78,51.8c-0.1,0-0.1,0-0.2,0s-0.1,0.1-0.1,0.2v7.2
		c0,0.2,0.2,0.3,0.3,0.2l5.1-3.7C83,55.6,83,55.4,83,55.3L83,55.3z"/>
</g>
</svg>
